<svg width="291" height="131" viewBox="0 0 291 131" fill="none" xmlns="http://www.w3.org/2000/svg">
<path d="M50.5259 130.239L278.964 127.285L190.442 102.933L200.42 81.8272L257.037 74.0575L242.534 70.6946L203.552 68.9551L50.5259 130.239Z" fill="#172B4D"/>
<path d="M176.868 22.4535L169.907 22.5695L112.014 1L177.448 38.1088L188.122 29.2955L176.868 22.4535Z" fill="#36B37E"/>
<path d="M176.868 22.4533L289.522 1.81152L233.253 56.4311L176.868 22.4533Z" fill="#172B4D"/>
<path d="M112.014 1L224.436 64.8967L199.144 69.5353L137.19 74.058L112.014 1Z" fill="white" stroke="#36B37E" stroke-width="1.43685" stroke-miterlimit="10" stroke-linejoin="round"/>
<path d="M224.436 64.8965L289.521 1.81152L242.534 70.6948L224.436 64.8965Z" fill="white" stroke="#36B37E" stroke-width="1.43685" stroke-miterlimit="10" stroke-linejoin="round"/>
<path d="M177.448 38.1093L206.569 14.1045L209.585 16.5398L200.42 51.2133L177.448 38.1093Z" fill="white" stroke="#36B37E" stroke-width="1.43685" stroke-miterlimit="10" stroke-linejoin="round"/>
<path d="M209.585 16.5391L235.921 53.8798L224.436 64.8965L200.42 51.2126L209.585 16.5391Z" fill="white" stroke="#36B37E" stroke-width="1.43685" stroke-miterlimit="10" stroke-linejoin="round"/>
<path d="M242.534 70.6947L199.144 69.5351L224.435 64.8965L242.534 70.6947Z" fill="white" stroke="#36B37E" stroke-width="1.43685" stroke-miterlimit="10" stroke-linejoin="round"/>
<path d="M92.6395 52.8357L83.3581 54.4592L1.68164 37.9922L96.8161 73.4775L109.23 59.4457L92.6395 52.8357Z" fill="white" stroke="#36B37E" stroke-width="1.43685" stroke-miterlimit="10" stroke-linejoin="round"/>
<path d="M92.6394 52.8362L238.358 1.81152L174.896 85.8862L92.6394 52.8362Z" fill="#C5E9DA" stroke="#36B37E" stroke-width="1.43685" stroke-miterlimit="10"/>
<path d="M1.68164 37.9922L165.151 98.8738L132.318 110.47L50.6411 129.373L1.68164 37.9922Z" fill="white" stroke="#36B37E" stroke-width="1.43685" stroke-miterlimit="10" stroke-linejoin="round"/>
<path d="M165.151 98.8743L238.358 1.81152L190.442 102.933L165.151 98.8743Z" fill="white" stroke="#36B37E" stroke-width="1.43685" stroke-miterlimit="10" stroke-linejoin="round"/>
<path d="M96.8162 73.4782L130.577 35.5576L135.102 37.9929L130.229 85.8864L96.8162 73.4782Z" fill="#36B37E"/>
<path d="M135.102 37.9922L177.912 81.9429L165.151 98.8738L130.229 85.8857L135.102 37.9922Z" fill="white" stroke="#36B37E" stroke-width="1.43685" stroke-miterlimit="10" stroke-linejoin="round"/>
<path d="M190.442 102.933L132.317 110.471L165.15 98.874L190.442 102.933Z" fill="white" stroke="#36B37E" stroke-width="1.43685" stroke-miterlimit="10" stroke-linejoin="round"/>
<mask id="mask0_34_2543" style="mask-type:alpha" maskUnits="userSpaceOnUse" x="0" y="37" width="166" height="93">
<path d="M1.479 38.4248L164.843 98.631L132.492 109.774L50.8157 128.676L1.479 38.4248Z" fill="white" stroke="#36B37E" stroke-width="1.43685" stroke-miterlimit="10" stroke-linejoin="round"/>
</mask>
<g mask="url(#mask0_34_2543)">
<path d="M99.8325 101.309L82.0818 101.889L73.8446 87.625L56.79 88.3208L64.7952 102.469L47.9727 102.932L55.7458 117.196L72.9164 116.848L90.4351 116.384L99.0204 131.344L117.351 131.112L126.401 146.419H145.427L136.146 130.88L126.981 115.689L108.418 116.036L99.8325 101.309Z" fill="#C5E9DA"/>
<path d="M91.2475 86.8138L82.8942 72.666L65.7236 73.5937L73.8449 87.6255L91.2475 86.8138Z" fill="#C5E9DA"/>
<path d="M117.931 100.73L109.23 86.002L91.2473 86.8137L99.8326 101.309L117.931 100.73Z" fill="#36B37E"/>
<path d="M127.561 85.3059L118.628 70.6943L100.529 71.738L109.23 86.0017L127.561 85.3059Z" fill="#172B4D"/>
<path d="M136.61 100.033L117.931 100.729L126.981 115.689L145.892 115.225L165.383 114.761L155.753 99.4536L146.356 84.4941L127.561 85.3059L136.61 100.033Z" fill="#36B37E"/>
<path d="M40.1995 89.0171L56.79 88.3213L49.0169 74.5215L65.7234 73.5938L57.8342 59.7939L41.3597 60.8376L25.2332 61.8813L32.6584 75.3333L16.7639 76.261L1.10156 77.0727L8.17864 90.4087L24.0731 89.7129L31.4982 103.513L47.9727 102.933L40.1995 89.0171Z" fill="#36B37E"/>
<path d="M15.3716 104.093L22.7967 117.892L39.0392 117.544L31.498 103.513L15.3716 104.093Z" fill="#36B37E"/>
<path d="M2.49365 49.936L9.57073 62.9241L25.2331 61.8804L18.04 48.7764L2.49365 49.936Z" fill="#36B37E"/>
<path d="M82.894 72.6656L100.529 71.7379L92.0594 57.7061L83.8222 43.9062L66.7676 45.1819L50.061 46.3415L57.8342 59.7935L74.7728 58.7498L82.894 72.6656Z" fill="#36B37E"/>
<path d="M128.141 55.3867L109.926 56.5464L118.628 70.6941L137.19 69.7664L128.141 55.3867Z" fill="#36B37E"/>
<path d="M165.731 83.5662L156.101 68.7227L137.19 69.7663L146.356 84.4939L165.731 83.5662Z" fill="#36B37E"/>
<path d="M39.0396 117.544L46.8127 131.924L63.7513 131.692L55.7461 117.196L39.0396 117.544Z" fill="#36B37E"/>
</g>
</svg>
